<svg width="1024" height="1024" viewBox="0 0 1024 1024" fill="none" xmlns="http://www.w3.org/2000/svg">
<rect width="1024" height="1024" rx="60" fill="#F8FAFC"/>
<rect width="1024" height="1024" rx="60" fill="url(#paint0_linear_4_4695)"/>
<path d="M247.652 387.617C248.157 387.616 248.663 387.615 249.183 387.614C250.875 387.612 252.566 387.615 254.257 387.619C255.482 387.618 256.708 387.618 257.933 387.617C261.299 387.615 264.665 387.618 268.031 387.622C271.662 387.625 275.292 387.624 278.923 387.624C285.212 387.623 291.502 387.626 297.791 387.63C306.885 387.636 315.978 387.638 325.072 387.639C339.825 387.641 354.579 387.646 369.332 387.654C383.664 387.661 397.996 387.666 412.328 387.67C413.212 387.67 414.095 387.67 415.005 387.67C419.437 387.671 423.868 387.672 428.3 387.673C465.067 387.681 501.833 387.695 538.6 387.713C538.865 388.38 538.865 388.38 539.135 389.06C539.946 391.1 540.759 393.139 541.571 395.178C541.849 395.877 542.127 396.577 542.413 397.297C544.585 402.741 546.946 408.061 549.413 413.378C554.118 423.693 558.396 434.17 562.613 444.693C562.931 445.483 563.249 446.273 563.577 447.087C564.483 449.341 565.384 451.597 566.282 453.854C566.556 454.538 566.831 455.221 567.114 455.925C567.487 456.869 567.487 456.869 567.867 457.833C568.086 458.383 568.304 458.932 568.53 459.498C568.994 460.959 568.994 460.959 568.994 463.296C486.439 463.553 403.883 463.811 318.827 464.075C318.569 491.332 318.312 518.589 318.047 546.672C330.805 546.668 343.562 546.664 356.706 546.66C365.226 546.657 373.746 546.655 382.267 546.652C382.808 546.652 383.35 546.652 383.907 546.652C402.142 546.647 420.377 546.642 438.611 546.639C439.207 546.639 439.802 546.639 440.416 546.639C453.357 546.636 466.299 546.634 479.241 546.632C485.589 546.631 491.936 546.63 498.283 546.629C498.915 546.629 499.547 546.629 500.197 546.629C520.646 546.626 541.094 546.62 561.543 546.613C582.567 546.605 603.592 546.601 624.617 546.599C627.591 546.599 630.565 546.598 633.539 546.598C634.124 546.598 634.71 546.598 635.313 546.598C644.71 546.597 654.107 546.594 663.504 546.589C672.966 546.584 682.428 546.583 691.89 546.584C697.011 546.584 702.131 546.583 707.252 546.579C711.95 546.575 716.648 546.575 721.345 546.578C723.035 546.578 724.726 546.577 726.416 546.575C728.734 546.572 731.053 546.573 733.372 546.576C734.009 546.574 734.646 546.572 735.303 546.57C743.016 546.591 750.644 547.083 758.373 547.451C758.373 572.137 758.373 596.822 758.373 622.256C707.708 622.513 657.044 622.77 604.844 623.035C604.844 734.377 604.844 845.719 604.844 960.435C597.821 963.068 597.821 963.068 593.735 963.743C592.824 963.896 591.912 964.048 590.974 964.205C590.005 964.359 589.037 964.513 588.039 964.672C587.024 964.837 586.009 965.002 584.963 965.172C577.433 966.381 569.884 967.44 562.321 968.422C561.345 968.549 560.37 968.676 559.365 968.807C556.602 969.154 553.837 969.479 551.069 969.785C550.303 969.87 549.536 969.955 548.747 970.042C540.122 970.849 531.774 970.565 523.013 970.565C523.013 855.88 523.013 741.195 523.013 623.035C455.374 623.035 387.736 623.035 318.047 623.035C318.047 669.32 318.047 715.606 318.047 763.294C314.254 761.777 312.084 760.059 309.231 757.303C308.328 756.451 307.425 755.598 306.522 754.747C306.089 754.337 305.657 753.927 305.212 753.505C303.756 752.138 302.266 750.818 300.756 749.511C293.074 742.847 285.588 736.069 278.968 728.329C277.937 727.147 276.88 725.986 275.808 724.841C269.907 718.542 264.733 711.78 259.597 704.853C259.167 704.274 258.738 703.696 258.295 703.1C252.517 695.289 247.056 687.321 241.873 679.104C241.068 677.853 240.192 676.649 239.297 675.461C237.605 672.618 237.387 671.157 237.392 667.888C237.386 666.888 237.379 665.888 237.373 664.857C237.382 663.753 237.391 662.649 237.401 661.545C237.399 660.368 237.396 659.191 237.392 658.014C237.386 654.781 237.398 651.549 237.414 648.317C237.427 644.831 237.423 641.344 237.42 637.858C237.419 631.818 237.428 625.778 237.446 619.738C237.471 611.006 237.479 602.273 237.483 593.541C237.49 579.373 237.511 565.205 237.54 551.038C237.569 537.275 237.591 523.512 237.604 509.749C237.605 508.901 237.606 508.053 237.607 507.179C237.611 502.923 237.615 498.667 237.619 494.411C237.651 459.105 237.706 423.798 237.775 388.492C241.111 387.856 244.258 387.616 247.652 387.617Z" fill="#475569"/>
<mask id="mask0_4_4695" style="mask-type:alpha" maskUnits="userSpaceOnUse" x="60" y="54" width="905" height="916">
<path d="M567.594 57.174C569.118 57.3587 570.642 57.5434 572.166 57.7258C596.126 60.603 619.568 65.5622 642.813 72.0176C643.682 72.2542 644.551 72.4908 645.446 72.7347C651.668 74.5076 657.317 76.9185 663.122 79.7557C662.635 82.4715 661.935 84.9512 660.963 87.5334C660.672 88.3097 660.382 89.0859 660.083 89.8857C659.761 90.7346 659.44 91.5834 659.109 92.4579C658.604 93.8034 658.604 93.8034 658.089 95.1761C657.329 97.1987 656.567 99.2206 655.804 101.242C654.63 104.351 653.46 107.461 652.29 110.572C649.123 118.992 645.955 127.41 642.764 135.821C642.562 136.354 642.36 136.886 642.153 137.435C641.605 138.879 641.054 140.322 640.503 141.764C640.2 142.56 639.896 143.356 639.584 144.177C638.849 145.943 638.849 145.943 638.066 146.722C632.31 146.397 626.867 144.683 621.34 143.156C600.329 137.386 579.084 133.562 557.414 131.149C556.196 131.01 556.196 131.01 554.953 130.869C530.461 128.209 505.171 128.823 480.678 131.149C479.461 131.255 479.461 131.255 478.22 131.364C407.99 137.622 333.5 165.878 279.442 211.352C278.67 211.996 277.898 212.639 277.102 213.302C274.937 215.112 272.782 216.933 270.631 218.759C269.213 219.96 267.791 221.156 266.369 222.351C262.113 225.94 257.906 229.502 254.034 233.505C252.727 234.805 251.349 235.967 249.932 237.146C227.398 256.533 208.613 283.537 193.747 308.953C192.47 311.12 191.168 313.27 189.862 315.419C179.009 333.402 170.393 352.225 162.772 371.76C162.436 372.615 162.1 373.47 161.754 374.351C137.963 435.223 130.403 500.513 167.717 668.701C185.234 708.267 209.229 744.34 238.517 776.275C239.522 777.384 240.521 778.499 241.496 779.634C244.817 783.488 248.34 787.001 252.085 790.446C252.955 791.252 252.955 791.252 253.843 792.074C255.026 793.169 256.21 794.263 257.394 795.355C258.939 796.786 260.473 798.227 262.001 799.675C268.055 805.387 274.357 810.599 281.008 815.608C281.983 816.35 282.957 817.092 283.932 817.834C297.065 827.782 310.534 837.022 324.857 845.197C325.44 845.53 326.023 845.863 326.623 846.206C330.703 848.521 334.82 850.763 338.952 852.984C339.624 853.349 340.297 853.715 340.99 854.091C378.788 874.548 419.872 886.424 462.259 892.806C465.311 893.271 468.357 893.763 471.398 894.291C472.108 894.414 472.818 894.537 473.55 894.664C475.197 895.033 475.197 895.033 475.98 895.812C476.055 898.111 476.079 900.391 476.069 902.691C476.069 903.412 476.069 904.134 476.07 904.877C476.069 907.275 476.063 909.672 476.057 912.07C476.055 913.727 476.054 915.384 476.053 917.042C476.05 921.413 476.043 925.785 476.034 930.157C476.026 934.614 476.022 939.071 476.018 943.528C476.01 952.281 475.997 961.034 475.98 969.786C453.88 968.254 453.88 968.254 443.925 966.574C442.438 966.329 442.438 966.329 440.922 966.08C428.998 964.066 417.231 961.3 405.479 958.475C404.023 958.125 402.566 957.779 401.108 957.432C391.492 955.14 382.001 952.67 372.621 949.54C371.902 949.305 371.182 949.069 370.441 948.827C335.483 937.355 300.827 921.447 270.046 901.262C269.34 900.805 268.635 900.347 267.908 899.875C257.04 892.758 246.501 885.251 236.376 877.123C235.872 876.721 235.368 876.318 234.849 875.903C220.929 864.767 207.636 853.266 194.974 840.72C193.926 839.683 193.926 839.683 192.857 838.626C189.38 835.16 186.016 831.65 182.81 827.936C181.225 826.12 179.567 824.382 177.901 822.64C172.868 817.366 168.297 811.86 163.853 806.092C162.38 804.204 160.862 802.353 159.345 800.499C114.43 745.453 83.2398 676.945 68.8092 607.7C68.6723 607.055 68.5354 606.409 68.3944 605.744C62.1209 575.866 59.9755 545.745 60.0002 515.281C60.0007 514.337 60.0013 513.394 60.0018 512.422C60.0318 496.445 60.5421 480.601 62.3003 464.715C62.402 463.796 62.402 463.796 62.5057 462.858C69.6986 398.726 91.4941 335.838 124.703 280.442C125.842 278.533 126.965 276.615 128.077 274.69C140.679 252.933 155.971 232.901 172.168 213.689C172.791 212.946 172.791 212.946 173.426 212.188C178.141 206.571 183.001 201.243 188.26 196.126C189.895 194.502 191.421 192.854 192.918 191.107C197.854 185.375 203.343 180.115 209.114 175.223C210.524 173.987 211.825 172.692 213.13 171.348C215.971 168.477 219.072 165.991 222.226 163.47C224.357 161.739 226.436 159.968 228.508 158.169C234.285 153.162 240.281 148.531 246.466 144.034C248.158 142.802 249.841 141.561 251.525 140.319C265.18 130.313 279.658 121.696 294.319 113.239C294.906 112.9 295.493 112.562 296.098 112.213C303.711 107.841 311.445 103.774 319.376 100.001C320.037 99.6864 320.699 99.3715 321.38 99.047C334.567 92.8116 348.006 87.2284 361.659 82.0917C362.153 81.9059 362.647 81.72 363.156 81.5285C396.74 68.9568 432.555 61.3664 468.15 57.174C469.559 56.9993 469.559 56.9993 470.997 56.8212C502.727 53.0247 535.916 52.9798 567.594 57.174Z" fill="white"/>
<path d="M946.577 386.556C947.26 388.129 947.26 388.129 947.813 390.245C948.025 391.047 948.236 391.848 948.454 392.674C948.675 393.562 948.895 394.45 949.122 395.364C949.357 396.291 949.592 397.218 949.834 398.173C952.893 410.553 955.281 423.068 957.54 435.612C957.702 436.502 957.865 437.392 958.032 438.309C964.744 475.905 965.935 515.216 962.238 553.193C962.185 553.741 962.131 554.288 962.077 554.853C960.683 569.105 959.121 583.342 956.445 597.421C956.11 599.195 955.784 600.97 955.465 602.747C951.98 622.035 946.514 640.508 940.313 659.093C940.098 659.74 939.883 660.386 939.662 661.052C923.473 709.625 899.687 754.819 868.013 795.248C866.645 797.002 865.291 798.765 863.938 800.53C859.193 806.697 854.361 812.65 849.005 818.303C847.37 820.03 845.798 821.788 844.246 823.589C841.926 826.254 839.445 828.718 836.921 831.19C835.477 832.649 834.13 834.15 832.794 835.707C827.898 841.355 822.514 846.601 816.807 851.433C815.372 852.686 813.978 853.96 812.592 855.266C806.748 860.767 800.734 865.839 794.35 870.708C792.527 872.12 790.764 873.601 788.994 875.079C779.893 882.52 770.106 889.149 760.247 895.551C758.499 896.69 756.759 897.842 755.018 898.993C736.387 911.261 716.78 921.276 696.549 930.658C695.67 931.067 694.792 931.477 693.887 931.899C693.073 932.272 692.258 932.645 691.419 933.03C690.698 933.362 689.977 933.694 689.235 934.036C687.397 934.746 687.397 934.746 685.048 934.746C684.867 924.281 684.728 913.817 684.642 903.352C684.602 898.492 684.546 893.633 684.457 888.774C684.372 884.083 684.326 879.394 684.305 874.702C684.291 872.914 684.263 871.125 684.22 869.337C683.902 855.329 683.902 855.329 686.697 851.509C688.721 850.066 690.548 849.162 692.878 848.312C693.635 847.858 694.392 847.405 695.172 846.937C696.093 846.448 696.093 846.448 697.032 845.949C697.739 845.566 698.445 845.183 699.174 844.789C700.273 844.196 700.273 844.196 701.394 843.591C721.503 832.489 740.447 818.056 757.413 802.632C759.065 801.146 760.733 799.686 762.414 798.233C765.645 795.428 768.791 792.542 771.915 789.619C772.461 789.109 773.007 788.598 773.569 788.072C779.589 782.428 785.385 776.706 790.756 770.444C791.464 769.634 792.173 768.824 792.882 768.014C798.384 761.71 803.656 755.264 808.766 748.641C809.141 748.158 809.516 747.674 809.903 747.176C823.945 729.045 835.404 709.547 846.351 689.462C846.745 688.74 847.139 688.019 847.545 687.275C867.516 650.29 880.089 607.676 885.6 566.187C885.724 565.256 885.848 564.324 885.976 563.364C888.08 546.786 888.93 530.332 888.878 513.626C888.877 512.658 888.876 511.689 888.874 510.691C888.835 494.893 888.301 479.318 886.285 463.645C886.22 463.135 886.155 462.625 886.089 462.1C884.013 445.836 880.568 429.946 876.707 414.022C876.201 411.88 875.739 409.74 875.322 407.58C879.723 405.545 884.086 403.811 888.732 402.421C893.488 400.969 898.228 399.48 902.951 397.925C914.111 394.262 925.221 390.905 936.673 388.235C938.791 387.74 940.611 387.212 942.632 386.385C944.228 385.777 944.228 385.777 946.577 386.556Z" fill="white"/>
<path d="M724.976 279.876C730.252 282.642 734.298 286.045 736.721 291.557C737.536 296.568 736.525 300.68 733.589 304.794C732.162 306.367 730.685 307.834 729.12 309.271C727.591 310.764 726.214 312.281 724.82 313.895C721.097 318.17 717.026 322.081 712.974 326.043C709.229 329.729 705.699 333.524 702.268 337.499C697.223 343.157 691.982 348.577 686.547 353.863C684.317 356.077 682.268 358.429 680.207 360.797C677.367 364.014 674.381 367.096 671.422 370.203C668.48 373.304 665.614 376.454 662.803 379.672C657.108 386.189 651.103 392.358 644.909 398.404C641.904 401.354 639.066 404.386 636.31 407.566C633.919 410.285 631.409 412.893 628.909 415.512C625.014 419.608 621.14 423.719 617.31 427.874C614.327 431.109 611.269 434.246 608.125 437.328C606.319 439.152 604.656 441.081 602.978 443.022C600.562 445.741 598.072 448.389 595.582 451.04C595.1 451.553 594.618 452.066 594.122 452.594C591.536 455.342 591.536 455.342 590.296 456.636C589.891 457.075 589.485 457.513 589.067 457.965C587.947 458.973 587.947 458.973 586.381 458.973C586.154 458.423 585.926 457.874 585.692 457.308C583.513 452.075 581.267 446.876 578.98 441.688C573.735 429.786 568.749 417.798 563.989 405.695C563.256 403.835 562.517 401.976 561.773 400.12C560.731 397.517 559.704 394.909 558.682 392.298C558.212 391.135 558.212 391.135 557.733 389.949C557.459 389.236 557.184 388.524 556.902 387.79C556.658 387.172 556.414 386.554 556.163 385.918C555.752 383.734 556.167 382.922 557.409 381.105C559.129 379.687 560.826 378.391 562.646 377.114C563.169 376.74 563.693 376.366 564.232 375.981C573.117 369.678 582.282 363.835 591.556 358.12C605.281 349.663 605.281 349.663 618.877 341.003C629.772 333.944 640.803 327.081 651.979 320.47C655.886 318.155 659.743 315.766 663.595 313.363C668.606 310.236 673.634 307.137 678.667 304.044C682.218 301.862 685.766 299.674 689.306 297.473C719.449 278.755 719.449 278.755 724.976 279.876Z" fill="white"/>
<rect width="22.6842" height="74.1031" rx="5" transform="matrix(0.87777 0.479081 -0.483193 0.875514 718.295 102.138)" fill="white"/>
<rect width="22.6611" height="74.179" rx="5" transform="matrix(0.766457 0.642296 -0.646487 0.762925 799.362 152.892)" fill="white"/>
<rect width="22.6311" height="74.2773" rx="5" transform="matrix(0.590869 0.806767 -0.809883 0.586591 867.736 222.577)" fill="white"/>
<rect width="22.6086" height="74.3506" rx="5" transform="matrix(0.412699 0.910867 -0.912579 0.408902 917.896 304.12)" fill="white"/>
</mask>
<g mask="url(#mask0_4_4695)">
<rect x="60" y="54" width="904" height="917" fill="url(#paint1_linear_4_4695)"/>
</g>
<defs>
<linearGradient id="paint0_linear_4_4695" x1="0" y1="0" x2="1024" y2="1024" gradientUnits="userSpaceOnUse">
<stop stop-color="#7C3AED" stop-opacity="0.07"/>
<stop offset="1" stop-color="#60A5FA" stop-opacity="0.07"/>
</linearGradient>
<linearGradient id="paint1_linear_4_4695" x1="60" y1="971" x2="976.907" y2="67.0921" gradientUnits="userSpaceOnUse">
<stop stop-color="#A855F7"/>
<stop offset="0.504808" stop-color="#7C3AED"/>
<stop offset="1" stop-color="#60A5FA"/>
</linearGradient>
</defs>
</svg>
